<svg xmlns="http://www.w3.org/2000/svg" version="1.1" xmlns:xlink="http://www.w3.org/1999/xlink" width="1000" height="1000"><style>
    #light-icon {
      display: inline;
    }
    #dark-icon {
      display: none;
    }

    @media (prefers-color-scheme: dark) {
      #light-icon {
        display: none;
      }
      #dark-icon {
        display: inline;
      }
    }
  </style><g id="light-icon"><svg xmlns="http://www.w3.org/2000/svg" version="1.1" xmlns:xlink="http://www.w3.org/1999/xlink" width="1000" height="1000"><g><g transform="matrix(1,0,0,1,0,0)"><svg xmlns="http://www.w3.org/2000/svg" width="1000" height="1000" viewBox="0 0 1000 1000" fill="none"><path fill-rule="evenodd" clip-rule="evenodd" d="M476.636 840.201C426.272 840.176 413.145 843.513 399.403 825.153C393.947 817.851 390.032 806.793 386.461 800.328C363.753 759.137 251.597 504.113 251.597 504.113C175.225 322.764 146.447 280.699 151.114 218.956C157.16 138.816 289.352 153.088 313.069 185.154C317.071 190.572 407.259 428.726 427.195 478.155C476.636 600.766 475.762 600.976 480.429 611.479C481.18 613.166 489.012 630.813 500.095 623.72C511.682 616.307 508.456 613.819 512.926 600.914C525.733 564.046 570.814 454.192 576.011 441.508C648.184 265.639 650.671 234.841 670.706 205.349C677.134 195.892 718.017 135.726 809.252 169.909C851.501 185.733 850.023 197.985 849.038 207.59C846.736 230.002 609.431 778.2 586.81 822.493C575.678 844.265 559.202 840.201 476.636 840.201Z" fill="#5C0A1F"></path></svg></g></g></svg></g><g id="dark-icon"><svg xmlns="http://www.w3.org/2000/svg" version="1.1" xmlns:xlink="http://www.w3.org/1999/xlink" width="1000" height="1000"><g clip-path="url(#SvgjsClipPath1028)"><rect width="1000" height="1000" fill="#ffffff"></rect><g transform="matrix(0.7,0,0,0.7,150,150)"><svg xmlns="http://www.w3.org/2000/svg" width="1000" height="1000" viewBox="0 0 1000 1000" fill="none"><path fill-rule="evenodd" clip-rule="evenodd" d="M476.636 840.201C426.272 840.176 413.145 843.513 399.403 825.153C393.947 817.851 390.032 806.793 386.461 800.328C363.753 759.137 251.597 504.113 251.597 504.113C175.225 322.764 146.447 280.699 151.114 218.956C157.16 138.816 289.352 153.088 313.069 185.154C317.071 190.572 407.259 428.726 427.195 478.155C476.636 600.766 475.762 600.976 480.429 611.479C481.18 613.166 489.012 630.813 500.095 623.72C511.682 616.307 508.456 613.819 512.926 600.914C525.733 564.046 570.814 454.192 576.011 441.508C648.184 265.639 650.671 234.841 670.706 205.349C677.134 195.892 718.017 135.726 809.252 169.909C851.501 185.733 850.023 197.985 849.038 207.59C846.736 230.002 609.431 778.2 586.81 822.493C575.678 844.265 559.202 840.201 476.636 840.201Z" fill="#5C0A1F"></path></svg></g></g><defs><clipPath id="SvgjsClipPath1028"><rect width="1000" height="1000" x="0" y="0" rx="350" ry="350"></rect></clipPath></defs></svg></g></svg>